<?xml version="1.0" standalone="no"?>
<!DOCTYPE svg PUBLIC "-//W3C//DTD SVG 20010904//EN"
 "http://www.w3.org/TR/2001/REC-SVG-20010904/DTD/svg10.dtd">
<svg version="1.0" xmlns="http://www.w3.org/2000/svg"
 width="263.000000pt" height="263.000000pt" viewBox="0 0 263.000000 263.000000"
 preserveAspectRatio="xMidYMid meet">
<metadata>
Created by potrace 1.11, written by Peter Selinger 2001-2013
</metadata>
<g transform="translate(0.000000,263.000000) scale(0.100000,-0.100000)"
fill="#000000" stroke="none">
<path d="M2040 2544 c-102 -42 -291 -116 -420 -166 -129 -50 -241 -97 -249
-104 -13 -12 -47 -172 -38 -181 3 -2 33 7 66 22 34 14 67 23 73 19 7 -4 8 -3
4 4 -4 7 -2 12 4 12 6 0 30 8 53 18 23 11 74 31 112 47 39 15 84 33 100 41 88
37 138 54 147 48 6 -4 8 -2 4 4 -6 10 65 42 127 57 22 6 24 4 20 -17 -4 -23
-63 -58 -98 -58 -8 0 -15 -4 -15 -10 0 -5 -6 -10 -13 -10 -8 0 -28 -7 -46 -16
-17 -9 -37 -17 -44 -18 -7 -2 -25 -8 -41 -15 -16 -6 -36 -9 -43 -7 -8 3 -11 1
-8 -4 3 -6 2 -10 -3 -10 -6 0 -13 -7 -16 -16 -3 -8 -2 -13 2 -10 5 3 15 -4 22
-15 8 -10 20 -19 28 -19 7 0 11 -4 8 -9 -3 -5 4 -11 15 -14 15 -4 20 -11 15
-22 -3 -10 -2 -14 5 -10 6 4 19 -1 29 -10 15 -13 23 -14 39 -5 12 6 27 8 33 4
7 -4 8 -3 4 4 -10 16 26 15 44 0 12 -11 12 -10 1 4 -12 16 -10 19 14 28 34 13
43 6 24 -17 -9 -11 -10 -14 -2 -9 8 4 11 2 8 -6 -2 -7 -6 -32 -9 -55 -3 -32
-1 -43 9 -43 8 0 18 -7 23 -16 5 -9 13 -17 18 -17 5 -1 8 -5 7 -9 -2 -4 3 -5
10 -2 7 2 22 -3 33 -13 27 -24 64 -45 63 -36 -1 5 -1 10 0 13 3 6 12 109 12
133 0 9 3 17 7 17 4 0 8 19 9 43 4 79 8 107 15 107 8 0 8 -90 0 -104 -3 -6 -6
-19 -7 -30 -4 -49 -17 -152 -21 -168 -12 -41 -16 -65 -16 -90 0 -15 -3 -26 -7
-24 -3 2 -5 -10 -5 -27 1 -18 -3 -40 -7 -49 -6 -10 -5 -19 1 -23 6 -4 8 -11 4
-16 -3 -5 -7 -19 -9 -32 -9 -64 -16 -116 -21 -155 -5 -41 -4 -43 16 -32 11 6
26 8 32 4 6 -4 8 -3 4 4 -3 6 13 17 41 28 27 9 55 23 64 31 9 7 19 10 24 6 4
-5 5 -2 1 5 -4 7 -2 19 4 27 7 8 8 15 3 15 -5 0 -8 12 -6 28 4 37 23 172 27
197 3 11 5 33 5 48 1 20 5 26 14 21 9 -6 9 -5 0 8 -7 8 -11 17 -9 19 2 2 7 31
10 64 3 33 8 71 11 85 3 14 8 48 10 75 3 28 8 70 11 95 3 25 7 59 9 75 5 46
15 117 21 148 7 35 -3 35 -95 -4 -56 -23 -76 -28 -81 -18 -5 7 -7 17 -5 23 2
6 6 31 9 56 3 25 8 64 11 88 5 32 4 42 -7 41 -7 0 -96 -34 -198 -75z"/>
<path d="M1110 2163 c-8 -3 -28 -11 -45 -19 -58 -25 -211 -87 -285 -114 -125
-47 -504 -202 -513 -210 -10 -9 31 -50 85 -87 40 -27 56 -53 33 -53 -9 0 -23
-4 -33 -9 -28 -15 -84 -38 -124 -51 -21 -6 -38 -13 -38 -15 0 -3 28 -28 63
-56 34 -29 61 -57 59 -62 -1 -4 2 -6 8 -2 6 4 26 -8 44 -27 19 -18 42 -38 53
-44 10 -6 18 -16 18 -22 0 -6 4 -14 9 -19 5 -5 6 -2 1 6 -5 9 -3 12 6 9 8 -3
13 -12 11 -19 -2 -8 -1 -11 3 -7 9 9 128 -82 219 -167 18 -16 36 -31 40 -32
22 -4 165 -127 159 -137 -3 -6 -3 -8 2 -4 4 4 14 3 22 -4 16 -13 75 -19 67 -6
-3 4 -1 8 5 8 19 0 121 41 121 49 0 4 -32 32 -72 62 -39 29 -76 59 -82 64 -6
6 -28 23 -48 39 -21 16 -35 33 -31 39 3 6 1 7 -5 3 -16 -9 -52 11 -52 29 0 8
-7 15 -15 15 -7 0 -18 6 -22 13 -4 6 -17 17 -28 24 -11 6 -19 17 -17 25 2 7 0
10 -4 6 -11 -11 -65 32 -58 45 4 7 4 9 -1 5 -11 -11 -47 11 -39 24 4 6 3 8 -3
5 -13 -8 -114 73 -107 84 11 19 52 7 87 -25 20 -18 37 -31 37 -29 0 3 7 0 15
-7 8 -7 12 -17 8 -23 -3 -6 -1 -7 5 -3 6 4 19 0 29 -8 68 -56 138 -106 140
-99 1 4 11 47 21 94 l18 86 -58 44 c-32 24 -58 46 -58 49 0 9 20 35 20 26 0
-4 11 -1 24 7 17 12 26 13 34 5 9 -9 15 -2 26 22 7 19 11 41 8 49 -4 10 -1 12
9 6 11 -7 12 -6 2 7 -7 8 -10 18 -6 22 12 11 10 88 -2 92 -6 3 -63 -15 -126
-40 -125 -49 -180 -65 -164 -48 6 5 57 28 115 50 58 23 152 59 209 81 57 22
108 38 112 35 5 -3 9 -2 9 3 0 8 27 22 95 46 84 31 150 59 159 67 6 6 -1 13
-15 19 -13 5 -33 17 -44 28 -32 28 -83 63 -92 62 -4 0 -15 -3 -23 -6z"/>
<path d="M1570 2090 c0 -5 5 -10 11 -10 5 0 7 5 4 10 -3 6 -8 10 -11 10 -2 0
-4 -4 -4 -10z"/>
<path d="M1614 2086 c1 -8 5 -18 8 -22 4 -3 5 1 4 10 -1 8 -5 18 -8 22 -4 3
-5 -1 -4 -10z"/>
<path d="M1646 2088 c3 -5 10 -6 15 -3 13 9 11 12 -6 12 -8 0 -12 -4 -9 -9z"/>
<path d="M1696 2088 c3 -4 11 -5 19 -1 21 7 19 12 -4 10 -11 0 -18 -5 -15 -9z"/>
<path d="M1456 2068 c3 -5 10 -6 15 -3 13 9 11 12 -6 12 -8 0 -12 -4 -9 -9z"/>
<path d="M1970 2050 c0 -5 5 -10 11 -10 5 0 7 5 4 10 -3 6 -8 10 -11 10 -2 0
-4 -4 -4 -10z"/>
<path d="M1495 2030 c-3 -5 -1 -10 4 -10 6 0 11 5 11 10 0 6 -2 10 -4 10 -3 0
-8 -4 -11 -10z"/>
<path d="M1890 2009 c0 -5 5 -7 10 -4 6 3 10 8 10 11 0 2 -4 4 -10 4 -5 0 -10
-5 -10 -11z"/>
<path d="M1951 1997 c-8 -10 -7 -14 2 -14 8 0 14 6 14 14 0 7 -1 13 -2 13 -2
0 -8 -6 -14 -13z"/>
<path d="M2000 1950 c-9 -6 -10 -10 -3 -10 6 0 15 5 18 10 8 12 4 12 -15 0z"/>
<path d="M1013 1901 c0 -11 5 -18 9 -15 4 3 5 11 1 19 -7 21 -12 19 -10 -4z"/>
<path d="M1990 1910 c0 -5 5 -10 11 -10 5 0 7 5 4 10 -3 6 -8 10 -11 10 -2 0
-4 -4 -4 -10z"/>
<path d="M1115 1889 c-3 -4 2 -6 10 -5 21 3 28 13 10 13 -9 0 -18 -4 -20 -8z"/>
<path d="M914 1852 c4 -3 14 -7 22 -8 9 -1 13 0 10 4 -4 3 -14 7 -22 8 -9 1
-13 0 -10 -4z"/>
<path d="M1096 1848 c3 -4 11 -5 19 -1 21 7 19 12 -4 10 -11 0 -18 -5 -15 -9z"/>
<path d="M1015 1830 c-3 -5 -1 -10 4 -10 6 0 11 5 11 10 0 6 -2 10 -4 10 -3 0
-8 -4 -11 -10z"/>
<path d="M914 1786 c1 -8 5 -18 8 -22 4 -3 5 1 4 10 -1 8 -5 18 -8 22 -4 3 -5
-1 -4 -10z"/>
<path d="M590 1496 c0 -2 7 -7 16 -10 8 -3 12 -2 9 4 -6 10 -25 14 -25 6z"/>
<path d="M2219 1418 c-5 -18 -6 -38 -1 -34 7 8 12 36 6 36 -2 0 -4 -1 -5 -2z"/>
<path d="M350 1396 c0 -2 7 -7 16 -10 8 -3 12 -2 9 4 -6 10 -25 14 -25 6z"/>
<path d="M2108 1388 c-10 -8 -19 -35 -22 -68 -4 -30 -8 -66 -10 -80 -2 -14 -7
-47 -11 -75 -3 -27 -9 -66 -11 -85 -3 -19 -9 -57 -14 -85 -6 -27 -12 -70 -14
-95 -5 -46 -10 -80 -22 -160 -4 -25 -8 -55 -9 -68 -3 -31 -10 -35 -34 -21 -19
13 -21 42 -3 73 2 4 6 31 8 60 2 28 6 65 8 81 14 98 17 119 21 126 12 18 -17
16 -91 -7 -43 -14 -83 -29 -87 -33 -8 -8 -12 -25 -22 -106 -3 -27 -8 -51 -10
-53 -2 -2 -21 13 -43 33 -23 20 -49 37 -59 38 -10 0 -53 -17 -95 -38 l-76 -39
21 -19 c12 -10 35 -28 50 -40 16 -12 35 -28 42 -34 8 -7 18 -13 23 -13 6 0 12
-3 14 -7 2 -5 25 -26 52 -47 27 -22 44 -42 37 -44 -7 -2 -21 6 -31 19 -11 12
-20 19 -20 15 0 -7 -39 22 -136 101 -21 18 -91 73 -154 122 -63 49 -122 96
-131 103 -34 31 -133 98 -137 94 -7 -8 -17 -185 -10 -191 2 -1 30 -21 63 -46
33 -24 74 -55 91 -69 16 -14 43 -35 60 -47 132 -98 209 -161 209 -170 0 -6 4
-15 9 -20 5 -5 6 -3 2 5 -4 6 -4 12 -1 12 6 0 150 -108 177 -132 8 -7 23 -18
33 -25 11 -6 19 -17 17 -25 -2 -7 0 -10 4 -6 4 5 22 -3 40 -17 34 -26 66 -28
87 -5 10 12 9 12 -5 2 -9 -7 -19 -9 -21 -4 -5 6 3 57 14 92 0 3 5 4 10 2 5 -1
4 6 -2 16 -8 13 -9 25 -2 36 8 15 15 13 58 -21 26 -21 59 -48 72 -61 13 -12
28 -22 33 -22 4 0 10 -6 13 -12 3 -8 7 -6 12 7 3 11 11 28 16 37 5 10 5 19 0
23 -6 3 -6 18 0 38 5 17 9 44 9 59 0 16 5 28 12 28 9 0 9 3 1 11 -7 7 -8 24
-2 47 4 20 10 57 13 82 3 25 9 59 12 75 3 17 7 39 9 50 1 11 3 20 4 20 1 0 4
23 7 50 2 28 6 56 9 64 3 8 8 40 12 70 3 31 11 59 17 63 8 5 7 8 -2 8 -7 0
-11 3 -9 8 3 4 8 27 11 52 3 25 10 70 15 99 8 51 7 56 -15 74 -13 10 -21 23
-18 29 4 7 2 8 -4 4 -13 -8 -84 52 -76 65 7 13 1 11 -18 -3z"/>
<path d="M773 1375 c0 -8 4 -12 9 -9 5 3 6 10 3 15 -9 13 -12 11 -12 -6z"/>
<path d="M410 1289 c0 -5 5 -7 10 -4 6 3 10 8 10 11 0 2 -4 4 -10 4 -5 0 -10
-5 -10 -11z"/>
<path d="M536 1292 c-3 -5 1 -9 9 -9 8 0 12 4 9 9 -3 4 -7 8 -9 8 -2 0 -6 -4
-9 -8z"/>
<path d="M454 1266 c1 -8 5 -18 8 -22 4 -3 5 1 4 10 -1 8 -5 18 -8 22 -4 3 -5
-1 -4 -10z"/>
<path d="M495 1250 c3 -5 8 -10 11 -10 2 0 4 5 4 10 0 6 -5 10 -11 10 -5 0 -7
-4 -4 -10z"/>
<path d="M576 1252 c-3 -5 1 -9 9 -9 8 0 12 4 9 9 -3 4 -7 8 -9 8 -2 0 -6 -4
-9 -8z"/>
<path d="M555 1169 c-3 -4 2 -6 10 -5 21 3 28 13 10 13 -9 0 -18 -4 -20 -8z"/>
<path d="M615 1150 c-3 -5 -1 -10 4 -10 6 0 11 5 11 10 0 6 -2 10 -4 10 -3 0
-8 -4 -11 -10z"/>
<path d="M666 1112 c-3 -5 1 -9 9 -9 8 0 15 4 15 9 0 4 -4 8 -9 8 -6 0 -12 -4
-15 -8z"/>
<path d="M730 1089 c0 -5 5 -7 10 -4 6 3 10 8 10 11 0 2 -4 4 -10 4 -5 0 -10
-5 -10 -11z"/>
<path d="M790 1076 c0 -2 7 -7 16 -10 8 -3 12 -2 9 4 -6 10 -25 14 -25 6z"/>
<path d="M819 998 c-5 -18 -6 -38 -1 -34 7 8 12 36 6 36 -2 0 -4 -1 -5 -2z"/>
<path d="M855 970 c3 -5 8 -10 11 -10 2 0 4 5 4 10 0 6 -5 10 -11 10 -5 0 -7
-4 -4 -10z"/>
<path d="M894 966 c1 -8 5 -18 8 -22 4 -3 5 1 4 10 -1 8 -5 18 -8 22 -4 3 -5
-1 -4 -10z"/>
<path d="M855 931 c-3 -5 -2 -12 3 -15 5 -3 9 1 9 9 0 17 -3 19 -12 6z"/>
<path d="M995 910 c-3 -5 -1 -10 4 -10 6 0 11 5 11 10 0 6 -2 10 -4 10 -3 0
-8 -4 -11 -10z"/>
<path d="M1246 708 c3 -5 10 -6 15 -3 13 9 11 12 -6 12 -8 0 -12 -4 -9 -9z"/>
<path d="M1140 696 c0 -2 8 -10 18 -17 15 -13 16 -12 3 4 -13 16 -21 21 -21
13z"/>
<path d="M1210 689 c0 -5 5 -7 10 -4 6 3 10 8 10 11 0 2 -4 4 -10 4 -5 0 -10
-5 -10 -11z"/>
<path d="M1294 686 c1 -8 5 -18 8 -22 4 -3 5 1 4 10 -1 8 -5 18 -8 22 -4 3 -5
-1 -4 -10z"/>
<path d="M1313 635 c0 -8 4 -12 9 -9 5 3 6 10 3 15 -9 13 -12 11 -12 -6z"/>
<path d="M1230 629 c0 -5 5 -7 10 -4 6 3 10 8 10 11 0 2 -4 4 -10 4 -5 0 -10
-5 -10 -11z"/>
<path d="M1265 630 c-3 -6 1 -7 9 -4 18 7 21 14 7 14 -6 0 -13 -4 -16 -10z"/>
<path d="M1357 603 c-10 -9 -9 -23 1 -23 5 0 9 7 9 15 0 17 -1 18 -10 8z"/>
<path d="M1379 543 c-13 -16 -12 -17 4 -4 16 13 21 21 13 21 -2 0 -10 -8 -17
-17z"/>
<path d="M1519 538 c-5 -18 -6 -38 -1 -34 7 8 12 36 6 36 -2 0 -4 -1 -5 -2z"/>
<path d="M1313 515 c0 -8 4 -12 9 -9 5 3 6 10 3 15 -9 13 -12 11 -12 -6z"/>
<path d="M1433 515 c0 -8 4 -15 9 -15 4 0 8 4 8 9 0 6 -4 12 -8 15 -5 3 -9 -1
-9 -9z"/>
<path d="M1476 508 c3 -5 10 -6 15 -3 13 9 11 12 -6 12 -8 0 -12 -4 -9 -9z"/>
<path d="M1610 429 c0 -5 5 -7 10 -4 6 3 10 8 10 11 0 2 -4 4 -10 4 -5 0 -10
-5 -10 -11z"/>
<path d="M1936 432 c-3 -5 1 -9 9 -9 8 0 12 4 9 9 -3 4 -7 8 -9 8 -2 0 -6 -4
-9 -8z"/>
<path d="M1633 395 c0 -8 4 -12 9 -9 5 3 6 10 3 15 -9 13 -12 11 -12 -6z"/>
<path d="M1956 388 c3 -5 10 -6 15 -3 13 9 11 12 -6 12 -8 0 -12 -4 -9 -9z"/>
<path d="M1566 368 c3 -5 10 -6 15 -3 13 9 11 12 -6 12 -8 0 -12 -4 -9 -9z"/>
<path d="M1919 363 c-13 -16 -12 -17 4 -4 16 13 21 21 13 21 -2 0 -10 -8 -17
-17z"/>
<path d="M1660 356 c0 -2 8 -10 18 -17 15 -13 16 -12 3 4 -13 16 -21 21 -21
13z"/>
<path d="M1976 348 c3 -4 11 -5 19 -1 21 7 19 12 -4 10 -11 0 -18 -5 -15 -9z"/>
<path d="M1633 335 c0 -8 4 -12 9 -9 5 3 6 10 3 15 -9 13 -12 11 -12 -6z"/>
<path d="M2053 295 c0 -8 4 -12 9 -9 5 3 6 10 3 15 -9 13 -12 11 -12 -6z"/>
<path d="M1799 263 c-13 -16 -12 -17 4 -4 16 13 21 21 13 21 -2 0 -10 -8 -17
-17z"/>
<path d="M1870 229 c0 -5 5 -7 10 -4 6 3 10 8 10 11 0 2 -4 4 -10 4 -5 0 -10
-5 -10 -11z"/>
</g>
</svg>
